HIERARCHY
ROOT pelvis
{
	OFFSET 0.003123 -0.351407 0.012037
	CHANNELS 6 Xposition Yposition Zposition Zrotation Yrotation Xrotation 
	JOINT left_hip
	{
		OFFSET 0.058189 -0.092763 -0.026001
		CHANNELS 3 Zrotation Yrotation Xrotation
		JOINT left_knee
		{
			OFFSET 0.054695 -0.378753 -0.009396
			CHANNELS 3 Zrotation Yrotation Xrotation
			JOINT left_ankle
			{
				OFFSET -0.043453 -0.403059 -0.031876
				CHANNELS 3 Zrotation Yrotation Xrotation
				JOINT left_foot
				{
					OFFSET 0.047257 -0.057997 0.118216
					CHANNELS 3 Zrotation Yrotation Xrotation
					End Site
					{
						OFFSET 0.000000 0.000000 0.000000
					}
				}
			}
		}
	}
	JOINT right_hip
	{
		OFFSET -0.063267 -0.103908 -0.021250
		CHANNELS 3 Zrotation Yrotation Xrotation
		JOINT right_knee
		{
			OFFSET -0.044210 -0.362380 -0.016824
			CHANNELS 3 Zrotation Yrotation Xrotation
			JOINT right_ankle
			{
				OFFSET 0.015417 -0.410728 -0.020192
				CHANNELS 3 Zrotation Yrotation Xrotation
				JOINT right_foot
				{
					OFFSET -0.038812 -0.058328 0.119049
					CHANNELS 3 Zrotation Yrotation Xrotation
					End Site
					{
						OFFSET 0.000000 0.000000 0.000000
					}
				}
			}
		}
	}
	JOINT spine_1
	{
		OFFSET -0.002763 0.109891 -0.027618
		CHANNELS 3 Zrotation Yrotation Xrotation
		JOINT spine_2
		{
			OFFSET 0.009448 0.131853 -0.005940
			CHANNELS 3 Zrotation Yrotation Xrotation
			JOINT spine_3
			{
				OFFSET -0.011330 0.052235 0.028447
				CHANNELS 3 Zrotation Yrotation Xrotation
				JOINT neck
				{
					OFFSET -0.012164 0.165167 -0.031615
					CHANNELS 3 Zrotation Yrotation Xrotation
					JOINT head
					{
						OFFSET 0.024783 0.160452 0.020737
						CHANNELS 3 Zrotation Yrotation Xrotation
						End Site
						{
							OFFSET 0.000000 0.000000 0.000000
						}
					}
				}
				JOINT left_collar
				{
					OFFSET 0.046364 0.084944 -0.007220
					CHANNELS 3 Zrotation Yrotation Xrotation
					JOINT left_shoulder
					{
						OFFSET 0.119239 0.057728 -0.015461
						CHANNELS 3 Zrotation Yrotation Xrotation
						JOINT left_elbow
						{
							OFFSET 0.254123 -0.072151 -0.042459
							CHANNELS 3 Zrotation Yrotation Xrotation
							JOINT left_wrist
							{
								OFFSET 0.251987 0.023221 -0.002472
								CHANNELS 3 Zrotation Yrotation Xrotation
								JOINT left_index_1
								{
									OFFSET 0.101902 -0.008688 0.019351
									CHANNELS 3 Zrotation Yrotation Xrotation
									JOINT left_index_2
									{
										OFFSET 0.030149 -0.011154 0.001151
										CHANNELS 3 Zrotation Yrotation Xrotation
										JOINT left_index_3
										{
											OFFSET 0.006504 -0.021577 -0.002433
											CHANNELS 3 Zrotation Yrotation Xrotation
											End Site
											{
												OFFSET 0.000000 0.000000 0.000000
											}
										}
									}
								}
								JOINT left_middle_1
								{
									OFFSET 0.109398 -0.006328 -0.003981
									CHANNELS 3 Zrotation Yrotation Xrotation
									JOINT left_middle_2
									{
										OFFSET 0.026472 -0.015218 -0.004641
										CHANNELS 3 Zrotation Yrotation Xrotation
										JOINT left_middle_3
										{
											OFFSET 0.005022 -0.023347 -0.001911
											CHANNELS 3 Zrotation Yrotation Xrotation
											End Site
											{
												OFFSET 0.000000 0.000000 0.000000
											}
										}
									}
								}
								JOINT left_pinky_1
								{
									OFFSET 0.084047 -0.014539 -0.043750
									CHANNELS 3 Zrotation Yrotation Xrotation
									JOINT left_pinky_2
									{
										OFFSET 0.012124 -0.014448 -0.005375
										CHANNELS 3 Zrotation Yrotation Xrotation
										JOINT left_pinky_3
										{
											OFFSET 0.003798 -0.018853 0.000167
											CHANNELS 3 Zrotation Yrotation Xrotation
											End Site
											{
												OFFSET 0.000000 0.000000 0.000000
											}
										}
									}
								}
								JOINT left_ring_1
								{
									OFFSET 0.097444 -0.009268 -0.027345
									CHANNELS 3 Zrotation Yrotation Xrotation
									JOINT left_ring_2
									{
										OFFSET 0.023561 -0.016057 -0.001895
										CHANNELS 3 Zrotation Yrotation Xrotation
										JOINT left_ring_3
										{
											OFFSET 0.004257 -0.023548 0.000814
											CHANNELS 3 Zrotation Yrotation Xrotation
											End Site
											{
												OFFSET 0.000000 0.000000 0.000000
											}
										}
									}
								}
								JOINT left_thumb_1
								{
									OFFSET 0.040636 -0.017977 0.025611
									CHANNELS 3 Zrotation Yrotation Xrotation
									JOINT left_thumb_2
									{
										OFFSET 0.021637 -0.017639 0.011623
										CHANNELS 3 Zrotation Yrotation Xrotation
										JOINT left_thumb_3
										{
											OFFSET 0.024002 -0.008356 0.006548
											CHANNELS 3 Zrotation Yrotation Xrotation
											End Site
											{
												OFFSET 0.000000 0.000000 0.000000
											}
										}
									}
								}
							}
						}
					}
				}
				JOINT right_collar
				{
					OFFSET -0.047695 0.084339 -0.013400
					CHANNELS 3 Zrotation Yrotation Xrotation
					JOINT right_shoulder
					{
						OFFSET -0.102578 0.053524 -0.012669
						CHANNELS 3 Zrotation Yrotation Xrotation
						JOINT right_elbow
						{
							OFFSET -0.271150 -0.036492 -0.026467
							CHANNELS 3 Zrotation Yrotation Xrotation
							JOINT right_wrist
							{
								OFFSET -0.249267 -0.004533 -0.015325
								CHANNELS 3 Zrotation Yrotation Xrotation
								JOINT right_index_1
								{
									OFFSET -0.099881 -0.011783 0.019600
									CHANNELS 3 Zrotation Yrotation Xrotation
									JOINT right_index_2
									{
										OFFSET -0.030148 -0.011154 0.001151
										CHANNELS 3 Zrotation Yrotation Xrotation
										JOINT right_index_3
										{
											OFFSET -0.006505 -0.021577 -0.002432
											CHANNELS 3 Zrotation Yrotation Xrotation
											End Site
											{
												OFFSET 0.000000 0.000000 0.000000
											}
										}
									}
								}
								JOINT right_middle_1
								{
									OFFSET -0.107376 -0.009422 -0.003734
									CHANNELS 3 Zrotation Yrotation Xrotation
									JOINT right_middle_2
									{
										OFFSET -0.026472 -0.015218 -0.004641
										CHANNELS 3 Zrotation Yrotation Xrotation
										JOINT right_middle_3
										{
											OFFSET -0.005022 -0.023347 -0.001911
											CHANNELS 3 Zrotation Yrotation Xrotation
											End Site
											{
												OFFSET 0.000000 0.000000 0.000000
											}
										}
									}
								}
								JOINT right_pinky_1
								{
									OFFSET -0.082027 -0.017634 -0.043503
									CHANNELS 3 Zrotation Yrotation Xrotation
									JOINT right_pinky_2
									{
										OFFSET -0.012123 -0.014448 -0.005374
										CHANNELS 3 Zrotation Yrotation Xrotation
										JOINT right_pinky_3
										{
											OFFSET -0.003798 -0.018852 0.000167
											CHANNELS 3 Zrotation Yrotation Xrotation
											End Site
											{
												OFFSET 0.000000 0.000000 0.000000
											}
										}
									}
								}
								JOINT right_ring_1
								{
									OFFSET -0.095423 -0.012362 -0.027099
									CHANNELS 3 Zrotation Yrotation Xrotation
									JOINT right_ring_2
									{
										OFFSET -0.023561 -0.016057 -0.001895
										CHANNELS 3 Zrotation Yrotation Xrotation
										JOINT right_ring_3
										{
											OFFSET -0.004257 -0.023548 0.000816
											CHANNELS 3 Zrotation Yrotation Xrotation
											End Site
											{
												OFFSET 0.000000 0.000000 0.000000
											}
										}
									}
								}
								JOINT right_thumb_1
								{
									OFFSET -0.038613 -0.021074 0.025861
									CHANNELS 3 Zrotation Yrotation Xrotation
									JOINT right_thumb_2
									{
										OFFSET -0.021636 -0.017639 0.011623
										CHANNELS 3 Zrotation Yrotation Xrotation
										JOINT right_thumb_3
										{
											OFFSET -0.024004 -0.008353 0.006547
											CHANNELS 3 Zrotation Yrotation Xrotation
											End Site
											{
												OFFSET 0.000000 0.000000 0.000000
											}
										}
									}
								}
							}
						}
					}
				}
			}
		}
	}
}
MOTION
Frames: 4
Frame Time: 0.050000
0.001087 0.685806 -0.012611 0.318389 -20.269930 -15.294667 -6.050299 -5.524542 -55.868083 18.724768 -22.224950 82.700937 -6.389631 -19.140761 -5.401650 0.000000 0.000000 0.000000 -5.395051 10.733313 -55.284098 47.794967 -18.324740 52.320301 -13.077112 -25.921580 7.459502 0.000000 0.000000 0.000000 -2.197087 -0.726325 30.909653 -5.992470 -2.063254 -16.295199 1.057917 -9.957278 21.570144 2.678659 1.271206 -11.657928 0.000000 0.000000 0.000000 14.783285 13.228526 -6.109986 -29.734587 -64.306078 2.513032 103.648780 -38.575275 -36.114283 27.532864 5.948443 -42.095637 11.287029 2.555019 1.174527 17.399725 -1.268528 -18.755864 0.000000 0.000000 0.000000 1.160413 -9.467088 -4.346193 18.625422 0.679589 -12.266434 0.000000 0.000000 0.000000 8.551724 -14.786265 -19.979502 24.075314 0.442010 7.995499 0.000000 0.000000 0.000000 -0.750188 -9.392683 -5.633920 28.117532 2.332442 -6.995994 0.000000 0.000000 0.000000 21.180686 0.875185 -10.087942 -38.883050 -9.703682 11.289151 0.000000 0.000000 0.000000 -6.364298 21.679795 11.041671 63.547290 40.035593 2.517295 18.471641 51.789626 7.059613 -25.510109 12.337451 33.516799 7.545101 1.525348 -0.631167 -8.503210 0.854823 6.900905 0.000000 0.000000 0.000000 -17.464462 -1.017149 1.501646 11.990079 -5.966363 7.672133 0.000000 0.000000 0.000000 -32.179491 -2.416978 5.085059 32.431293 -17.814541 7.089024 0.000000 0.000000 0.000000 -20.251912 -5.152839 0.601561 24.134703 -14.351927 15.173496 0.000000 0.000000 0.000000 14.436715 -4.462786 3.505394 3.615273 3.375446 0.214031 0.000000 0.000000 0.000000 
0.000321 0.685806 -0.009972 0.793669 -19.757586 -15.462399 -5.934620 -5.627809 -55.878630 18.643826 -22.287201 82.640479 -7.901859 -22.255465 -5.028267 0.000000 0.000000 0.000000 -5.285983 10.619915 -55.212766 47.651225 -18.348998 52.260689 -14.859127 -28.528385 8.476159 0.000000 0.000000 0.000000 -1.887310 -0.828473 30.441657 -5.979314 -1.966384 -15.979767 0.700015 -10.248903 21.829488 2.838353 1.229206 -11.522076 0.000000 0.000000 0.000000 14.628568 13.477351 -6.209810 -30.594983 -64.037292 2.928148 103.756663 -38.723904 -36.360329 28.024766 5.383038 -41.525160 11.550617 2.134215 1.039299 15.830897 -1.428690 -17.768742 0.000000 0.000000 0.000000 0.959140 -9.489783 -4.352606 19.070818 0.760857 -11.782983 0.000000 0.000000 0.000000 10.305767 -14.427031 -19.686697 21.572719 0.699259 7.246122 0.000000 0.000000 0.000000 -0.880020 -9.580762 -5.722496 28.686183 2.391585 -6.594258 0.000000 0.000000 0.000000 20.739671 0.130781 -10.340805 -38.252387 -9.464427 10.824449 0.000000 0.000000 0.000000 -5.787873 21.751404 11.050173 63.434829 40.207380 2.656370 18.210043 51.331647 6.834357 -25.536719 12.536874 33.762004 7.789930 1.198430 -0.532639 -8.802674 1.727656 4.717514 0.000000 0.000000 0.000000 -16.928829 -0.759772 1.336778 11.847018 -6.054277 8.049487 0.000000 0.000000 0.000000 -33.575988 -2.255863 5.225431 32.853131 -18.606364 7.345809 0.000000 0.000000 0.000000 -20.117268 -4.320700 0.181573 25.153207 -16.762685 16.507992 0.000000 0.000000 0.000000 13.341508 -4.679627 3.620391 3.917335 5.470518 -0.284683 0.000000 0.000000 0.000000 
-0.000503 0.684517 -0.007332 1.194512 -19.687771 -15.727741 -5.768255 -5.578184 -55.859149 18.280997 -22.053877 82.936952 -8.582370 -23.553469 -4.788972 0.000000 0.000000 0.000000 -5.192465 10.638047 -55.219319 47.532552 -18.420348 52.558277 -15.776910 -29.808404 9.041159 0.000000 0.000000 0.000000 -1.951266 -0.814023 30.275911 -6.101853 -1.805486 -15.590204 0.878223 -10.280544 21.580968 3.178815 1.262461 -11.791781 0.000000 0.000000 0.000000 14.837236 13.552460 -6.203379 -32.040013 -63.761262 3.721828 104.061167 -38.781059 -36.726577 27.923957 4.965942 -41.232558 11.133802 3.216307 1.296020 15.602703 -1.455949 -18.296632 0.000000 0.000000 0.000000 1.794834 -8.749187 -4.017225 19.466742 0.681836 -12.023775 0.000000 0.000000 0.000000 9.344514 -14.195388 -19.256044 21.343503 0.679724 6.807459 0.000000 0.000000 0.000000 -1.857074 -9.828706 -5.695854 29.120719 2.380631 -6.845096 0.000000 0.000000 0.000000 19.869719 0.851378 -9.646707 -38.064887 -10.047023 10.582139 0.000000 0.000000 0.000000 -6.191101 21.525208 10.971759 63.829673 40.068519 2.618563 18.687621 51.573395 7.124341 -25.184755 12.300323 34.480298 6.642179 2.101444 -0.882287 -7.501674 0.241762 7.406041 0.000000 0.000000 0.000000 -15.180750 -1.419743 1.706375 9.075484 -4.697418 7.891470 0.000000 0.000000 0.000000 -30.857493 -2.070859 4.682236 27.998776 -15.969208 8.078985 0.000000 0.000000 0.000000 -19.149212 -6.046505 1.094410 23.438783 -14.441588 14.427160 0.000000 0.000000 0.000000 13.320029 -4.098266 3.031734 5.133924 3.069353 0.906086 0.000000 0.000000 0.000000 
-0.001387 0.683228 -0.004692 1.159917 -19.688677 -15.592245 -5.766898 -5.582841 -56.091591 18.266912 -22.121262 83.031689 -8.748254 -23.401251 -4.382377 0.000000 0.000000 0.000000 -5.289070 10.647539 -55.404501 47.677988 -18.479101 52.452991 -15.820352 -29.879756 9.343633 0.000000 0.000000 0.000000 -1.988698 -0.815115 30.099770 -5.784554 -2.156383 -16.454367 0.619764 -10.053354 22.346460 3.216356 1.199223 -11.540991 0.000000 0.000000 0.000000 14.430198 13.654456 -6.283421 -32.794288 -63.473440 3.985641 104.508242 -39.320747 -37.558729 27.530084 4.038344 -40.494402 10.948742 3.009184 1.176133 16.616723 -1.301969 -18.379865 0.000000 0.000000 0.000000 1.765496 -9.023385 -4.168449 20.086234 0.762623 -11.000233 0.000000 0.000000 0.000000 9.854409 -14.300547 -19.460357 22.087219 0.580212 6.832932 0.000000 0.000000 0.000000 0.405820 -8.969043 -5.603445 25.799000 2.177013 -7.480660 0.000000 0.000000 0.000000 19.667473 1.053454 -9.643585 -37.784059 -8.795173 10.591289 0.000000 0.000000 0.000000 -5.971438 21.377423 10.897277 63.714779 40.042637 2.598027 19.115844 51.401372 7.292173 -25.051848 11.952077 34.236049 6.359134 2.056491 -0.829195 -6.610186 0.239207 6.869510 0.000000 0.000000 0.000000 -16.938953 -2.153087 2.117025 12.468999 -5.686296 6.208499 0.000000 0.000000 0.000000 -32.760968 -2.242975 5.130689 32.231821 -19.063080 8.470458 0.000000 0.000000 0.000000 -20.306351 -5.876893 0.906792 25.070844 -15.230835 14.530103 0.000000 0.000000 0.000000 13.870791 -4.071787 3.079186 4.538402 2.889249 0.719335 0.000000 0.000000 0.000000 
